<svg width="24" height="25" viewBox="0 0 24 25" fill="none" xmlns="http://www.w3.org/2000/svg">
<g clip-path="url(#clip0_128_76)">
<path d="M16.5 3.88599C14.76 3.88599 13.09 4.69599 12 5.97599C10.91 4.69599 9.24 3.88599 7.5 3.88599C4.42 3.88599 2 6.30599 2 9.38599C2 13.166 5.4 16.246 10.55 20.926L12 22.236L13.45 20.916C18.6 16.246 22 13.166 22 9.38599C22 6.30599 19.58 3.88599 16.5 3.88599ZM12.1 19.436L12 19.536L11.9 19.436C7.14 15.126 4 12.276 4 9.38599C4 7.38599 5.5 5.88599 7.5 5.88599C9.04 5.88599 10.54 6.87599 11.07 8.24599H12.94C13.46 6.87599 14.96 5.88599 16.5 5.88599C18.5 5.88599 20 7.38599 20 9.38599C20 12.276 16.86 15.126 12.1 19.436Z" fill="white"/>
</g>
<defs>
<clipPath id="clip0_128_76">
<rect width="24" height="24" fill="white" transform="translate(0 0.885986)"/>
</clipPath>
</defs>
</svg>
